<svg width="24" height="24" viewBox="0 0 24 24" fill="none" xmlns="http://www.w3.org/2000/svg">
<path d="M15.1948 15.8217C16.9232 16.1748 18.7173 16.0122 20.3541 15.354C19.6841 17.0213 18.5304 18.45 17.0417 19.4562C15.5529 20.4624 13.797 21.0001 12.0001 21C9.9105 20.9977 7.88674 20.2687 6.27577 18.9378C4.6648 17.6069 3.56695 15.757 3.17043 13.7054C2.77391 11.6537 3.1034 9.52805 4.10244 7.69272C5.10148 5.85739 6.70782 4.42673 8.64611 3.646C7.98791 5.28277 7.82527 7.0769 8.17839 8.80535C8.53151 10.5338 9.38484 12.1204 10.6323 13.3678C11.8797 14.6153 13.4663 15.4686 15.1948 15.8217Z" stroke="#18181B" stroke-width="2" stroke-linecap="round" stroke-linejoin="round"/>
</svg>
