<svg width="32" height="32" viewBox="0 0 32 32" fill="none" xmlns="http://www.w3.org/2000/svg">
<path d="M11.1597 9.38858L8.89251 6.29171M8.1684 13.4747L4.5 12.2918M8.1684 18.5253L4.5 19.7082M11.1597 22.6114L8.89251 25.7083M16 24.1721V28M20.8403 22.6114L23.1075 25.7083M23.8316 18.5253L27.5 19.7082M23.8316 13.4747L27.5 12.2918M20.8403 9.38858L23.1075 6.29171M16 7.82795V4M21.608 16C21.608 19.0737 19.0972 21.5655 16 21.5655C12.9028 21.5655 10.392 19.0737 10.392 16C10.392 12.9263 12.9028 10.4345 16 10.4345C19.0972 10.4345 21.608 12.9263 21.608 16Z" stroke="white" stroke-linecap="round"/>
</svg>
