<svg width="108" height="124" viewBox="0 0 108 124" fill="none" xmlns="http://www.w3.org/2000/svg">
<g filter="url(#filter0_f_2_104)">
<path d="M54.0045 28.5042C66.582 28.3382 77.943 37.7817 79.7575 51.0857C80.541 56.8141 79.3658 62.2519 77.0977 67.503C74.6234 73.2313 71.0976 78.2748 67.0975 83.007C63.3655 87.407 59.2417 91.4128 54.8292 95.1071C54.1694 95.6675 53.757 95.6053 53.1385 95.0864C45.427 88.5693 38.5403 81.3258 33.4268 72.5257C30.9113 68.1879 28.9731 63.601 28.2927 58.5575C27.1999 50.6706 29.1587 43.5932 34.3134 37.5327C38.8496 32.1779 44.726 29.2722 51.6745 28.525C51.7776 28.5042 51.8807 28.5042 51.9838 28.5042C52.6642 28.5042 53.3241 28.5042 54.0045 28.5042Z" fill="black" fill-opacity="0.17"/>
</g>
<g filter="url(#filter1_b_2_104)">
<path d="M70.4012 21.0021C82.687 20.8428 93.7844 29.9013 95.5568 42.6629C96.3221 48.1577 95.1741 53.3738 92.9587 58.4107C90.5418 63.9056 87.0977 68.7434 83.1905 73.2826C79.545 77.5033 75.5169 81.3457 71.2068 84.8894C70.5623 85.427 70.1595 85.3672 69.5553 84.8695C62.0227 78.6182 55.2958 71.67 50.3009 63.2287C47.8437 59.0677 45.9505 54.6679 45.2859 49.83C44.2184 42.2647 46.1318 35.4758 51.1669 29.6624C55.5979 24.5259 61.3379 21.7387 68.1253 21.022C68.226 21.0021 68.3267 21.0021 68.4274 21.0021C69.0921 21.0021 69.7366 21.0021 70.4012 21.0021Z" fill="white" fill-opacity="0.4"/>
<path d="M70.4012 21.5021V21.5021L70.4077 21.502C82.4476 21.3459 93.3247 30.2258 95.0615 42.7316L95.0616 42.7318C95.8107 48.11 94.6907 53.231 92.501 58.2094C90.111 63.6431 86.7003 68.4386 82.8121 72.9558C79.1876 77.1522 75.1805 80.975 70.8893 84.5032L70.8866 84.5055C70.6003 84.7442 70.4588 84.7709 70.3853 84.7681C70.2998 84.7648 70.1566 84.7169 69.8741 84.4843C62.3681 78.2549 55.6869 71.3491 50.7312 62.974C48.2947 58.8479 46.4338 54.5123 45.7812 49.762L45.781 49.7602C44.7332 42.334 46.6069 35.6909 51.5449 29.9898L51.5455 29.989C55.8862 24.9571 61.5055 22.2238 68.1778 21.5192L68.2002 21.5168L68.2223 21.5125C68.2672 21.5036 68.3191 21.5021 68.4274 21.5021H68.4313H68.4352H68.4391H68.443H68.4469H68.4508H68.4547H68.4586H68.4625H68.4663H68.4702H68.4741H68.478H68.4819H68.4858H68.4897H68.4936H68.4975H68.5013H68.5052H68.5091H68.513H68.5169H68.5208H68.5246H68.5285H68.5324H68.5363H68.5402H68.5441H68.5479H68.5518H68.5557H68.5596H68.5635H68.5673H68.5712H68.5751H68.579H68.5829H68.5867H68.5906H68.5945H68.5984H68.6022H68.6061H68.61H68.6139H68.6177H68.6216H68.6255H68.6294H68.6332H68.6371H68.641H68.6448H68.6487H68.6526H68.6565H68.6603H68.6642H68.6681H68.6719H68.6758H68.6797H68.6835H68.6874H68.6913H68.6951H68.699H68.7029H68.7067H68.7106H68.7145H68.7183H68.7222H68.7261H68.7299H68.7338H68.7377H68.7415H68.7454H68.7492H68.7531H68.757H68.7608H68.7647H68.7685H68.7724H68.7763H68.7801H68.784H68.7878H68.7917H68.7956H68.7994H68.8033H68.8071H68.811H68.8149H68.8187H68.8226H68.8264H68.8303H68.8341H68.838H68.8419H68.8457H68.8496H68.8534H68.8573H68.8611H68.865H68.8688H68.8727H68.8765H68.8804H68.8842H68.8881H68.8919H68.8958H68.8997H68.9035H68.9074H68.9112H68.9151H68.9189H68.9228H68.9266H68.9305H68.9343H68.9382H68.942H68.9459H68.9497H68.9536H68.9574H68.9612H68.9651H68.9689H68.9728H68.9766H68.9805H68.9843H68.9882H68.992H68.9959H68.9997H69.0036H69.0074H69.0113H69.0151H69.0189H69.0228H69.0266H69.0305H69.0343H69.0382H69.042H69.0459H69.0497H69.0535H69.0574H69.0612H69.0651H69.0689H69.0728H69.0766H69.0804H69.0843H69.0881H69.092H69.0958H69.0996H69.1035H69.1073H69.1112H69.115H69.1189H69.1227H69.1265H69.1304H69.1342H69.1381H69.1419H69.1457H69.1496H69.1534H69.1573H69.1611H69.1649H69.1688H69.1726H69.1764H69.1803H69.1841H69.188H69.1918H69.1956H69.1995H69.2033H69.2072H69.211H69.2148H69.2187H69.2225H69.2263H69.2302H69.234H69.2379H69.2417H69.2455H69.2494H69.2532H69.257H69.2609H69.2647H69.2686H69.2724H69.2762H69.2801H69.2839H69.2877H69.2916H69.2954H69.2992H69.3031H69.3069H69.3108H69.3146H69.3184H69.3223H69.3261H69.3299H69.3338H69.3376H69.3414H69.3453H69.3491H69.3529H69.3568H69.3606H69.3645H69.3683H69.3721H69.376H69.3798H69.3836H69.3875H69.3913H69.3951H69.399H69.4028H69.4066H69.4105H69.4143H69.4181H69.422H69.4258H69.4297H69.4335H69.4373H69.4412H69.445H69.4488H69.4527H69.4565H69.4603H69.4642H69.468H69.4718H69.4757H69.4795H69.4834H69.4872H69.491H69.4949H69.4987H69.5025H69.5064H69.5102H69.514H69.5179H69.5217H69.5255H69.5294H69.5332H69.5371H69.5409H69.5447H69.5486H69.5524H69.5562H69.5601H69.5639H69.5677H69.5716H69.5754H69.5793H69.5831H69.5869H69.5908H69.5946H69.5984H69.6023H69.6061H69.61H69.6138H69.6176H69.6215H69.6253H69.6291H69.633H69.6368H69.6407H69.6445H69.6483H69.6522H69.656H69.6599H69.6637H69.6675H69.6714H69.6752H69.6791H69.6829H69.6867H69.6906H69.6944H69.6983H69.7021H69.7059H69.7098H69.7136H69.7175H69.7213H69.7251H69.729H69.7328H69.7367H69.7405H69.7443H69.7482H69.752H69.7559H69.7597H69.7636H69.7674H69.7712H69.7751H69.7789H69.7828H69.7866H69.7905H69.7943H69.7981H69.802H69.8058H69.8097H69.8135H69.8174H69.8212H69.8251H69.8289H69.8328H69.8366H69.8404H69.8443H69.8481H69.852H69.8558H69.8597H69.8635H69.8674H69.8712H69.8751H69.8789H69.8828H69.8866H69.8905H69.8943H69.8982H69.902H69.9059H69.9097H69.9136H69.9174H69.9213H69.9251H69.929H69.9328H69.9367H69.9405H69.9444H69.9482H69.9521H69.9559H69.9598H69.9636H69.9675H69.9714H69.9752H69.9791H69.9829H69.9868H69.9906H69.9945H69.9983H70.0022H70.0061H70.0099H70.0138H70.0176H70.0215H70.0253H70.0292H70.0331H70.0369H70.0408H70.0446H70.0485H70.0524H70.0562H70.0601H70.0639H70.0678H70.0717H70.0755H70.0794H70.0832H70.0871H70.091H70.0948H70.0987H70.1026H70.1064H70.1103H70.1142H70.118H70.1219H70.1258H70.1296H70.1335H70.1374H70.1412H70.1451H70.149H70.1528H70.1567H70.1606H70.1644H70.1683H70.1722H70.176H70.1799H70.1838H70.1877H70.1915H70.1954H70.1993H70.2031H70.207H70.2109H70.2148H70.2186H70.2225H70.2264H70.2303H70.2341H70.238H70.2419H70.2458H70.2497H70.2535H70.2574H70.2613H70.2652H70.269H70.2729H70.2768H70.2807H70.2846H70.2885H70.2923H70.2962H70.3001H70.304H70.3079H70.3117H70.3156H70.3195H70.3234H70.3273H70.3312H70.3351H70.3389H70.3428H70.3467H70.3506H70.3545H70.3584H70.3623H70.3662H70.3701H70.374H70.3778H70.3817H70.3856H70.3895H70.3934H70.3973H70.4012Z" stroke="url(#paint0_linear_2_104)"/>
</g>
<g filter="url(#filter2_b_2_104)">
<circle cx="70.5" cy="46.0021" r="11.5" transform="rotate(-47.7085 70.5 46.0021)" fill="white" fill-opacity="0.4"/>
<circle cx="70.5" cy="46.0021" r="11" transform="rotate(-47.7085 70.5 46.0021)" stroke="url(#paint1_linear_2_104)"/>
</g>
<defs>
<filter id="filter0_f_2_104" x="0" y="0.50209" width="108" height="123" filterUnits="userSpaceOnUse" color-interpolation-filters="sRGB">
<feFlood flood-opacity="0" result="BackgroundImageFix"/>
<feBlend mode="normal" in="SourceGraphic" in2="BackgroundImageFix" result="shape"/>
<feGaussianBlur stdDeviation="14" result="effect1_foregroundBlur_2_104"/>
</filter>
<filter id="filter1_b_2_104" x="34.3699" y="10.3699" width="72.0539" height="85.5286" filterUnits="userSpaceOnUse" color-interpolation-filters="sRGB">
<feFlood flood-opacity="0" result="BackgroundImageFix"/>
<feGaussianBlur in="BackgroundImageFix" stdDeviation="5.31507"/>
<feComposite in2="SourceAlpha" operator="in" result="effect1_backgroundBlur_2_104"/>
<feBlend mode="normal" in="SourceGraphic" in2="effect1_backgroundBlur_2_104" result="shape"/>
</filter>
<filter id="filter2_b_2_104" x="24.9999" y="0.502014" width="91.0002" height="91.0002" filterUnits="userSpaceOnUse" color-interpolation-filters="sRGB">
<feFlood flood-opacity="0" result="BackgroundImageFix"/>
<feGaussianBlur in="BackgroundImageFix" stdDeviation="17"/>
<feComposite in2="SourceAlpha" operator="in" result="effect1_backgroundBlur_2_104"/>
<feBlend mode="normal" in="SourceGraphic" in2="effect1_backgroundBlur_2_104" result="shape"/>
</filter>
<linearGradient id="paint0_linear_2_104" x1="47.3959" y1="25.7606" x2="102.685" y2="36.5468" gradientUnits="userSpaceOnUse">
<stop stop-color="white" stop-opacity="0.43"/>
<stop offset="1" stop-color="white" stop-opacity="0.35"/>
</linearGradient>
<linearGradient id="paint1_linear_2_104" x1="60.0849" y1="36.2058" x2="84.5809" y2="42.2524" gradientUnits="userSpaceOnUse">
<stop stop-color="white" stop-opacity="0.43"/>
<stop offset="1" stop-color="white" stop-opacity="0.35"/>
</linearGradient>
</defs>
</svg>
